<svg width="39" height="41" viewBox="0 0 39 41" fill="none" xmlns="http://www.w3.org/2000/svg">
<path d="M30.295 12.1727C30.295 11.3713 30.2173 10.7241 29.4167 10.7241H29.022C29.022 6.87165 26.8171 3.53889 23.6029 1.90854L22.7838 6.55134C22.7196 6.91906 22.4002 7.17708 22.0395 7.17708C21.9953 7.17708 21.9511 7.17289 21.9061 7.16499C21.4942 7.092 21.219 6.7001 21.2933 6.28775L22.2273 0.98481C21.8772 0.423694 21.2552 0.0499268 20.5439 0.0499268H17.7398C17.0294 0.0499268 16.4074 0.423694 16.0573 0.98481L16.9913 6.28775C17.0647 6.7001 16.79 7.09154 16.3776 7.16499C16.3325 7.17289 16.2884 7.17708 16.2442 7.17708C15.8835 7.17708 15.5636 6.91906 15.4999 6.55134L14.6817 1.90947C11.4666 3.53889 9.26305 6.87211 9.26305 10.7241H8.86789C8.0669 10.7241 7.99011 11.3713 7.99011 12.1727C7.99011 12.9728 8.06736 13.6213 8.86789 13.6213H29.4167C30.2173 13.6213 30.295 12.9728 30.295 12.1727Z" fill="white"/>
<path d="M26.3893 6.02615C26.3893 8.10389 23.2797 9.78823 19.4439 9.78823C15.6081 9.78823 12.4985 8.10389 12.4985 6.02615C12.4985 3.94841 15.6081 2.26407 19.4439 2.26407C23.2797 2.26407 26.3893 3.94841 26.3893 6.02615Z" fill="white"/>
<path d="M29.5368 40.0388V28.6725C28.9412 28.6725 28.2272 28.6725 27.7505 28.6725C27.5873 30.0299 23.8949 34.2371 21.3137 37.0351L20.1939 32.7175C21.0348 32.2201 21.219 31.1259 21.219 30.2165H16.9746C16.9746 31.1183 17.1577 32.2033 17.9811 32.7042L16.8799 37.0316C14.2969 34.2359 10.5363 30.027 10.3753 28.6719C10.0183 28.6719 9.24552 28.6719 8.65906 28.6719V40.0382L29.5368 40.0388Z" fill="white"/>
<path d="M38.675 32.3499C38.675 30.2374 36.9625 28.5249 34.85 28.5249H32.725V39.9999H34.85C36.9625 39.9999 38.675 38.2874 38.675 36.1749V32.3499Z" fill="white"/>
<path d="M6.68784e-07 36.1749C2.99425e-07 38.2874 1.71251 39.9999 3.825 39.9999L5.95 39.9999L5.95 28.5249L3.825 28.5249C1.71251 28.5249 1.70693e-06 30.2374 1.33757e-06 32.3499L6.68784e-07 36.1749Z" fill="white"/>
<path d="M9.56874 15.1803C9.4364 15.1803 9.30755 15.1682 9.17957 15.151C9.18435 15.5071 9.21744 15.8905 9.28404 16.287C9.53348 17.8073 10.1769 18.9842 10.7689 19.072C11.5233 21.2385 12.7174 23.3389 14.1923 24.8811C15.0281 25.7521 15.9531 26.4405 16.9404 26.8597C17.6178 27.1469 18.326 27.3054 19.0535 27.3054C19.7804 27.3054 20.4874 27.1479 21.1678 26.8597C22.1886 26.4265 23.1463 25.7047 24.0039 24.7872C25.4439 23.2547 26.6058 21.1841 27.3471 19.0549C27.9152 18.8768 28.5116 17.7395 28.755 16.2875C28.819 15.9007 28.8529 15.5266 28.8581 15.1785C28.8425 15.1789 28.8268 15.1812 28.8107 15.1812H9.56874V15.1803Z" fill="white"/>
</svg>
